<?xml version='1.0' encoding='utf-8'?>
<svg xmlns="http://www.w3.org/2000/svg" enable-background="new 0 0 5000 1037.214" version="1.1" viewBox="0 0 5e3 1037.2"> <path d="m559.17 810.39c-156.93 94.632-322.39 111.76-457.66-66.328-74.856-98.545 2.843-304.16 198.04-351.54 226.9-55.074 524.48 192.19 960.81 423.55 302.48 160.39 567.45 118.14 654.75-126.02 55.905-156.34-24.636-313.64-186.67-358.17-147.34-40.496-253.12 10.714-303.21 113.71 103.86-93.885 211.78-127.92 308.9-65.381 156.01 100.47 157.24 269.21 37.902 365.75-337.33 272.89-761.75-265.25-1191.1-405.55-289.95-94.756-519.51-12.725-571.37 196.14-80.343 323.58 364.8 491.78 549.58 273.84z"/> <path d="m161.2 697.63c-12.959-166.78 93.247-202.95 252.05-176.24 226.91 38.158 562.5 362.07 957.97 490.83 203.72 66.328 395.73-2.958 476.62-164.87-109.97 108.4-291.84 165.82-456.72 104.23-334.74-125.05-647.3-411.38-914.38-491.78-128.84-38.78-235.42-28.744-307 55.905-57.24 67.69-34.539 126.27-8.528 181.93z"/> <path d="m46.552 397.26c96-140.36 266.16-188.36 472.82-144.97 262.94 55.209 599.8 367.65 962.71 487.04 195.9 64.448 286.15-16.134 261.52-177.19-15.947 110.93-98.067 175.07-252.05 117.5-428.29-160.14-649.66-427.88-987.34-484.2-248.34-41.413-413.7 37.624-457.66 201.83z"/> <circle cx="1280.5" cy="474.01" r="31.269"/> <circle cx="1177.4" cy="409.34" r="31.98"/> <circle cx="1077.2" cy="341.83" r="36.244"/> <circle cx="958.56" cy="273.6" r="44.061"/> <circle cx="842.73" cy="215.33" r="49.746"/> <circle cx="721.2" cy="159.9" r="56.853"/> <circle cx="571.26" cy="98.782" r="58.274"/> <circle cx="402.12" cy="66.802" r="66.802"/> <circle cx="198.16" cy="103.05" r="74.619"/> <path d="m4440.8 810.39c156.93 94.631 322.39 111.76 457.66-66.328 74.856-98.545-2.843-304.16-198.04-351.54-226.9-55.074-524.48 192.19-960.81 423.55-302.48 160.39-567.45 118.14-654.75-126.02-55.905-156.34 24.636-313.64 186.67-358.17 147.34-40.496 253.12 10.714 303.21 113.71-103.86-93.885-211.78-127.92-308.9-65.381-156.01 100.47-157.24 269.21-37.902 365.75 337.33 272.89 761.75-265.25 1191.1-405.55 289.95-94.755 519.51-12.724 571.37 196.14 80.342 323.58-364.81 491.78-549.58 273.84z"/> <path d="m4838.8 697.63c12.958-166.78-93.248-202.95-252.05-176.24-226.91 38.158-562.5 362.07-957.97 490.83-203.72 66.328-395.73-2.958-476.62-164.87 109.97 108.4 291.84 165.82 456.72 104.23 334.74-125.05 647.3-411.38 914.38-491.78 128.84-38.78 235.42-28.744 307 55.905 57.242 67.69 34.541 126.27 8.53 181.93z"/> <path d="m4953.4 397.26c-96-140.36-266.16-188.36-472.82-144.97-262.94 55.209-599.8 367.65-962.71 487.04-195.9 64.448-286.15-16.134-261.52-177.19 15.947 110.93 98.067 175.07 252.05 117.5 428.29-160.14 649.66-427.88 987.34-484.2 248.34-41.413 413.7 37.624 457.66 201.83z"/> <circle cx="3719.5" cy="474.01" r="31.269"/> <circle cx="3822.6" cy="409.34" r="31.98"/> <circle cx="3922.8" cy="341.83" r="36.244"/> <circle cx="4041.4" cy="273.6" r="44.061"/> <circle cx="4157.3" cy="215.33" r="49.746"/> <circle cx="4278.8" cy="159.9" r="56.853"/> <circle cx="4428.7" cy="98.782" r="58.274"/> <circle cx="4597.9" cy="66.802" r="66.802"/> <circle cx="4801.8" cy="103.05" r="74.619"/> </svg>