<?xml version='1.0' encoding='utf-8'?>
<svg xmlns="http://www.w3.org/2000/svg" enable-background="new 0 0 480 45" version="1.1" viewBox="0 0 480 45"> <path d="m256.73 20.257c-25.941-5.898-54.665 6.027-76.378 12.625-19.853 6.032-49.011 11.735-71.02 10.452-19.545-1.14-39.235-17.196-23.684-28.963 11.901-9.006 43.746 0.537 33.018 16.963-3.667-11-9.667-13-18.333-12.667-10.191 0.391-16.189 6.097-7.335 12.667 14.107 10.467 53.441 4.595 66.333 0 28.948-10.318 66.421-18.795 97.399-11.077" fill="#AAD9B9"/> <path d="m216.56 28.172c25.941 5.898 54.665-6.026 76.379-12.624 19.853-6.032 49.011-11.735 71.02-10.452 19.545 1.14 39.234 17.196 23.684 28.963-11.9 9.007-43.745-0.536-33.018-16.963 3.668 11 9.668 13 18.334 12.668 10.19-0.393 16.188-6.098 7.334-12.668-14.107-10.467-53.441-4.595-66.334 0-28.948 10.318-66.421 18.795-97.399 11.076" fill="#C5ABD2"/> <path d="m94.25 7.5c-5.571 1.471-24.27 9.057-29.639 12.625-5.123 3.404-9.64 6.162-15.361 9.375-11.456 6.436-31.479 11.94-41.736 1.639-9.52-9.562-6.75-24.553 6.349-28.114 11.438-3.11 30.65 6.223 18.137 21.225 1-7-1.75-11.875-8.25-15.25-4.972-2.582-13.75 0-15.5 5.25-2.026 6.079 5.225 13.891 10.65 15.539 6.587 2.002 12.363 2.127 17.961-0.012 11.196-4.277 17.896-9.818 26.389-13.777 4.206-1.96 13.25-6.25 20.25-7.75 6.25-2 10.357-0.634 10.75-0.75" fill="#F8ABAC"/> <path d="m385.82 7.5c5.571 1.471 24.27 9.057 29.639 12.625 5.123 3.404 9.641 6.162 15.361 9.375 11.456 6.436 31.479 11.94 41.736 1.639 9.52-9.562 6.75-24.553-6.35-28.113-11.438-3.11-30.649 6.223-18.137 21.225-1-7 1.75-11.875 8.25-15.25 4.972-2.582 13.75 0 15.5 5.25 2.026 6.079-5.225 13.891-10.65 15.539-6.588 2.002-12.363 2.127-17.961-0.012-11.194-4.278-17.895-9.819-26.388-13.778-4.205-1.961-13.25-6.25-20.25-7.75-6.25-2-10.357-0.635-10.75-0.75" fill="#F8ABAC"/> </svg>