<?xml version='1.0' encoding='utf-8'?>
<svg xmlns="http://www.w3.org/2000/svg" enable-background="new 0 0 2583.12 457.47" version="1.1" viewBox="0 0 2583.1 457.47"> <path d="m1134.1 228.72c0 22.719-32.098 27.468-38.852 5.966h-861.52c50.641 75.174 7.159 88.348 39.783 115.84h-32.647c-9.737 29.354-9.785 61.094 0 90.567-5.608 7.684-16.92 7.613-22.481 0 8.735-29.64 8.711-61.046 0-90.567h-32.647c35.153-29.688-9.164-51.5 39.234-115.84-1.002 0-1.933-0.191-2.959-0.74-73.742 48.899-86.892 6.3-114.19 38.685v-32.671c-29.354-9.737-61.07-9.785-90.567 0-7.685-5.608-7.589-16.896 0-22.457 29.592 8.711 60.998 8.711 90.567 0v-32.671c29.521 34.962 51.262-8.615 114.72 38.398 1.145-0.477 1.861-0.477 2.983-0.477-50.641-75.174-7.159-88.324-39.783-115.82h32.647c9.737-29.378 9.785-61.094 0-90.567 5.608-7.708 16.92-7.589 22.481 0-8.735 29.64-8.711 61.046 0 90.567h32.647c-35.153 29.664 9.164 51.5-39.234 115.82h860.97c6.754-21.478 38.852-16.752 38.852 5.967z"/> <path d="m328.36 151.67c403.82 77.761 609.76 54.188 734.18 54.188 17.134 0 31.024-13.89 31.024-31.024s-13.89-31.024-31.024-31.024c-20.991 0-35.999 20.481-29.517 40.558-222.14 20.225-453.18 5.148-678.1-50.072 11.952-20.576-2.88-46.568-26.821-46.568-26.059 0-42.605 31.701-21.264 52.922 6.77 6.736 12.377 9.259 21.521 11.02z"/> <path d="m1050.1 251.41c-43.802 0.83-344.48-22.243-698.52 49.849-19.547 3.98-44.946 4.327-52.787 26.923-6.364 18.339 5.899 41.554 29.283 41.554 23.895 0 38.8-25.946 26.821-46.568 212.87-52.261 443.44-71.438 678.1-50.072-6.488 20.096 8.543 40.558 29.517 40.558 17.134 0 31.024-13.89 31.024-31.024 0-10.469-5.447-20.437-14.248-26.105-8.634-5.563-19.332-5.302-29.192-5.115z"/> <path d="m1449 228.72c0 22.719 32.098 27.468 38.852 5.966h861.52c-50.641 75.174-7.159 88.348-39.783 115.84h32.647c9.737 29.354 9.785 61.094 0 90.567 5.608 7.684 16.92 7.613 22.481 0-8.735-29.64-8.711-61.046 0-90.567h32.647c-35.153-29.688 9.164-51.5-39.234-115.84 1.002 0 1.933-0.191 2.959-0.74 73.742 48.899 86.892 6.3 114.19 38.685v-32.671c29.354-9.737 61.07-9.785 90.567 0 7.685-5.608 7.589-16.896 0-22.457-29.592 8.711-60.998 8.711-90.567 0v-32.671c-29.521 34.962-51.262-8.615-114.72 38.398-1.146-0.477-1.861-0.477-2.983-0.477 50.641-75.174 7.159-88.324 39.783-115.82h-32.647c-9.737-29.378-9.785-61.094 0-90.567-5.608-7.708-16.92-7.589-22.481 0 8.735 29.64 8.711 61.046 0 90.567h-32.647c35.153 29.664-9.164 51.5 39.234 115.82h-860.97c-6.754-21.478-38.852-16.752-38.852 5.967z"/> <path d="m2254.8 151.67c-403.82 77.761-609.76 54.188-734.18 54.188-17.134 0-31.024-13.89-31.024-31.024s13.89-31.024 31.024-31.024c20.991 0 35.999 20.481 29.517 40.558 222.14 20.225 453.18 5.148 678.1-50.072-11.952-20.576 2.88-46.568 26.821-46.568 26.055 0 42.608 31.698 21.264 52.922-6.77 6.734-12.372 9.258-21.522 11.02z"/> <path d="m1533 251.41c43.802 0.83 344.48-22.243 698.52 49.849 19.547 3.98 44.946 4.327 52.787 26.923 6.365 18.34-5.899 41.554-29.283 41.554-23.896 0-38.8-25.946-26.821-46.568-212.87-52.261-443.44-71.438-678.1-50.072 6.488 20.096-8.543 40.558-29.517 40.558-17.134 0-31.024-13.89-31.024-31.024 0-10.469 5.447-20.437 14.248-26.105 8.634-5.562 19.332-5.302 29.192-5.115z"/> <path d="m1315.3 235.61 72.732-2.905-72.732-2.905c34.929-10.42 67.384-15.924 96.99-15.765l19.191-26.779-31.266-10.385c-23.858 17.53-53.351 32.154-87.733 44.255l57.134-45.101-60.549 40.401c22.133-28.96 45.155-52.49 69.2-69.764l-0.214-32.945-31.399 9.977c-8.998 28.206-24.262 57.372-44.966 87.371l19.713-70.07-25.238 68.275c0.884-36.439 5.679-69.007 14.978-97.115l-19.538-26.527-19.538 26.527c9.3 28.107 14.094 60.675 14.978 97.115l-25.238-68.275 19.713 70.07c-20.703-30-35.967-59.166-44.965-87.371l-31.399-9.977-0.215 32.945c24.045 17.273 47.066 40.803 69.2 69.764l-60.549-40.401 57.134 45.101c-34.382-12.101-63.875-26.725-87.733-44.255l-31.266 10.385 19.192 26.779c29.605-0.159 62.061 5.345 96.989 15.765l-72.732 2.905 72.732 2.905c-34.929 10.42-67.384 15.924-96.989 15.765l-19.192 26.779 31.266 10.385c23.859-17.53 53.351-32.154 87.733-44.255l-57.134 45.101 60.549-40.401c-22.134 28.96-45.155 52.49-69.2 69.764l0.214 32.945 31.4-9.977c8.998-28.205 24.262-57.371 44.965-87.371l-19.713 70.07 25.236-68.274c-0.884 36.439-5.678 69.007-14.978 97.115l19.538 26.527 19.538-26.527c-9.299-28.108-14.094-60.676-14.978-97.115l25.238 68.275-19.713-70.07c20.703 29.999 35.967 59.166 44.966 87.371l31.399 9.977 0.215-32.945c-24.045-17.273-47.067-40.803-69.2-69.764l60.549 40.401-57.135-45.101c34.383 12.101 63.875 26.725 87.733 44.255l31.266-10.385-19.191-26.779c-29.604 0.157-62.059-5.347-96.988-15.766zm-23.699 12.018c-8.242 0-14.924-6.682-14.924-14.924s6.682-14.924 14.924-14.924 14.923 6.682 14.923 14.924-6.681 14.924-14.923 14.924z"/> </svg>