<?xml version='1.0' encoding='utf-8'?>
<svg xmlns="http://www.w3.org/2000/svg" enable-background="new 0 0 1024 1024" version="1.1" viewBox="0 0 1024 1024"> <path d="m887.35 31.137c11.434-3.028 23.179-6.34 35.123-5.363 4.627 0.311 8.476 4.387 8.123 9.099-0.269 12.736-6.283 24.41-11.717 35.646-1.076 1.656-1.429 4.175-3.524 4.868-8.873 3.821-17.958 7.104-26.83 10.896 7.755-0.863 15.495-1.854 23.25-2.915-13.939 22.5-29.66 43.783-45.693 64.797-16.854 22.613-35.052 44.165-52.811 66.042-9.665 11.717-19.274 23.462-29.123 35.009-33.807 6.792-68.066 11.052-102.44 13.571 29.774 3.792 59.915 3.552 89.844 2.108-20.179 23.066-39.793 46.641-60.043 69.665-15.113 17.491-30.821 34.458-46.16 51.736-2.292 2.25-3.92 5.901-7.458 6.297-25.981 4.811-52.387 6.651-78.538 10.217 23.561 1.401 47.208 0.991 70.811 0.255-17.887 19.528-35.83 38.986-54.241 58.019-2.632 2.476-4.67 6.226-8.632 6.566-34.599 7.557-69.722 12.453-104.93 15.976 30.722 2.632 61.67 1.033 92.377-1.146-9.481 8.193-18.113 19.259-31.203 21.396-33.807 6.877-68.009 11.816-102.34 15.212 36.948 4.175 74.59 10.981 107.66 28.769-34.203-6.198-68.618-11.434-103.23-14.66-5.717-0.736-11.476-0.665-17.208-0.906 28.387 4.16 55.5 13.981 82.061 24.495-36.241-6.396-72.41-14.094-109.19-16.67l-1.189-1.826c-0.142 0.382-0.41 1.146-0.552 1.528 23.83 9.736 43.415 29.165 53.448 52.854-12.623-14.859-26.774-28.811-43.953-38.363-7.627-4.486-15.991-7.472-24.198-10.698-9.991 14.873-20.052 29.703-29.717 44.788-1.656-1.16-3.297-2.278-4.939-3.396 14.618-23.844 30.778-46.698 47.009-69.467 63.651-90.283 138.01-172.77 219.08-247.71 58.627-53.491 120.57-103.42 186.04-148.32 10.797-7.557 22.019-14.533 32.717-22.231-22.528 13.047-44.391 27.226-65.929 41.83-49.571 33.127-97.245 69.085-142.94 107.38-37.217 31.033-72.368 64.472-106.33 99.028-42.278 43.488-81.929 89.606-117.56 138.71-22.5 30.425-42.976 62.292-62.674 94.585-1.542-1.146-3.099-2.292-4.642-3.396 2.123-5.561 5.887-10.259 8.816-15.382 7.302-11.448 14.406-23.024 22.033-34.259-12.906-15.212-32.943-21.58-52.047-24.325 17.576-2.505 36.297 0.849 51.113 10.924-9.453-16.684-20.278-32.547-31.882-47.816-3.142-4.104-6.495-8.066-9.156-12.495 16.981 14.391 32.278 30.906 44.774 49.358-9.92-39.509-17.675-80.575-12.368-121.39 0.764 22.104 4.5 43.939 9.099 65.533-1.684-22.755 2.052-45.665 9.198-67.245-0.467 10.542-2.151 21.042-1.84 31.642-0.481 19.259 2.448 38.349 4.557 57.439 1.67-24.382 4.443-48.849 11.292-72.382 5.349-17.873 11.972-35.745 22.613-51.184-3.722 14.802-5.844 29.929-7.557 45.071-2.873 22.458-3.283 45.241-0.92 67.755 3.722-32.476 11.137-64.514 21.085-95.646 1.995-7.826 7.967-13.458 12.821-19.571 32.972-39.849 70.09-76.09 109.17-109.87 33.538-28.585 68.349-55.712 104.86-80.377-2.066 18.368-4.076 37.047-1.585 55.472 3.34-22.627 9.198-45.099 18.58-65.986 13.132-9.297 27.34-17.108 41.094-25.5 31.924-19.259 64.84-36.849 98.547-52.811-3.057 9.297-6.948 18.368-9.085 27.934 6.439-10.925 11.278-23.123 19.627-32.717 22.644-10.092 45.781-19.262 69.54-26.451z"/> <path d="m311.97 598.36c4.443-7.783 8.915-15.637 14.491-22.684 10.118 7.84 21.099 14.391 32.038 20.986-4.783 7.769-9.142 16.019-15.609 22.528-11.208-5.293-22.712-11.293-30.92-20.83z"/> <path d="m282.07 630.03c11.392-6.24 21.566-14.533 30.736-23.674 7.104 6.042 14.774 11.434 23.335 15.24-3.892 11.618-5.929 23.759-7.16 35.929-0.142 2.533-3.326 2.958-5.009 4.217-19.953 9.991-38.038 23.462-53.533 39.481 2.476-5.476 6.17-10.274 9.325-15.368 7.797-11.462 14.901-23.363 22.486-34.967 3.566 0.41 8.179 0.283 9.708-3.693 3.255-5.165-1.358-13.245-7.641-11.873-6.41 1.401-8.349 10.16-3.594 14.519-12 15.58-20.59 33.594-32.915 48.906 9.96-21.438 12.323-45.396 14.262-68.717z"/> <path d="m175.52 688.9c28.642-8.915 58.939-8.915 88.613-10.542-0.524 1.939-1.047 3.906-1.571 5.873-18.283 1.019-36.679 1.557-54.722 4.981-5.335 1.33-11.462 2.108-15.212 6.594 5.094 4.033 11.717 5.009 17.901 6.269 18.368 3.028 36.976 4.259 55.571 4.741 19.33 0.212 38.703 0.509 57.991-0.991 12.792-1.203 25.741-1.84 38.222-5.123 3.212-0.877 6.495-1.84 9.241-3.807 1.344-2.519-1.84-3.17-3.439-4.132-8.094-3.495-16.967-4.571-25.656-5.632-12.354-1.358-24.764-2.519-37.217-2.434 2.901-2.066 5.759-4.217 8.377-6.623 25.656 3 51.934 3.424 76.755 11.307 5.024 1.599 11.123 4.656 11.505 10.642 0.156 6.354 0.778 12.948-0.835 19.174-2.717 6.226-10.274 7.189-16.09 8.774 0.198 7.189 0.057 14.391 0.184 21.594-0.057 7.288 3.948 13.995 9.057 18.92 9.057 8.307 20.165 13.825 30.028 21.071 16.939 11.66 32.264 26.859 40.019 46.259 10.557 25.571 8.292 54.325 1.91 80.646-5.406 20.476-13.684 40.557-26.59 57.495-6.184 7.91-14.349 14.887-24.311 17.321-9.453 2.307-19.203 2.83-28.854 3.778-31.557 2.42-63.212 3.41-94.868 3.34-39.863 0-79.755-0.552-119.49-3.892-11.052-1.316-23.123-1.033-32.689-7.585-14.038-9.495-22.472-24.849-29.689-39.736-12.071-26.745-18.439-56.604-15.608-85.939 1.953-21.382 12.226-41.689 28.033-56.165 11.675-11.406 25.797-19.726 39.226-28.84 7.882-5.519 16.302-12.396 18.269-22.344 0.807-8.717 0.127-17.491 0.396-26.222-6.297-1.061-14.363-2.83-16.627-9.736-0.792-6.34-0.509-12.807-0.113-19.174 0.935-5.885 7.388-8.107 12.284-9.862m20.038 84.991c-3.439 6.679-7.656 13.005-13.075 18.255-12.425 13.075-29.646 20.958-40.217 35.887-13.797 18.269-16.995 42.495-13.189 64.613 4.429 26.236 14.335 51.708 29.349 73.712 8.264 1.203 16.514 2.519 24.821 3.439-12.835-25.882-21.651-54.085-23.774-82.981-1.656-21.835 2.406-44.873 15.594-62.816 10.769-14.59 23.943-27.481 32.236-43.811-3.962-2.025-7.938-4.034-11.745-6.298z"/> </svg>